<svg xmlns="http://www.w3.org/2000/svg" viewBox="0 0 32 32" width="32" height="32">
  <!-- Beer mug body -->
  <rect x="8" y="6" width="12" height="20" rx="2" ry="2" fill="#FCD34D" stroke="#F59E0B" stroke-width="1"/>
  
  <!-- Beer foam -->
  <ellipse cx="14" cy="6" rx="6" ry="2" fill="#FFFFFF"/>
  <ellipse cx="12" cy="4.5" rx="2" ry="1" fill="#FFFFFF"/>
  <ellipse cx="16" cy="4.8" rx="1.5" ry="0.8" fill="#FFFFFF"/>
  
  <!-- Beer mug handle -->
  <path d="M20 12v8c0 1 1 2 2 2h2c1 0 2-1 2-2v-4c0-1-1-2-2-2h-2c-1 0-2 1-2 2z" fill="#F59E0B" stroke="#D97706" stroke-width="1"/>
  
  <!-- Beer bubbles -->
  <circle cx="12" cy="16" r="1" fill="#FFFFFF" opacity="0.7"/>
  <circle cx="16" cy="14" r="0.7" fill="#FFFFFF" opacity="0.7"/>
  <circle cx="13" cy="20" r="0.8" fill="#FFFFFF" opacity="0.7"/>
  <circle cx="15" cy="18" r="0.6" fill="#FFFFFF" opacity="0.7"/>
</svg>